<?xml version="1.0" encoding="UTF-8" standalone="no"?>
<!-- Created with Inkscape (http://www.inkscape.org/) -->

<svg
   width="512"
   height="512"
   viewBox="0 0 135.46666 135.46667"
   version="1.1"
   id="svg5"
   inkscape:version="1.1.2 (0a00cf5339, 2022-02-04)"
   sodipodi:docname="icon.svg"
   xmlns:inkscape="http://www.inkscape.org/namespaces/inkscape"
   xmlns:sodipodi="http://sodipodi.sourceforge.net/DTD/sodipodi-0.dtd"
   xmlns="http://www.w3.org/2000/svg"
   xmlns:svg="http://www.w3.org/2000/svg">
  <sodipodi:namedview
     id="namedview7"
     pagecolor="#ffffff"
     bordercolor="#666666"
     borderopacity="1.0"
     inkscape:pageshadow="2"
     inkscape:pageopacity="0.0"
     inkscape:pagecheckerboard="0"
     inkscape:document-units="mm"
     showgrid="false"
     units="px"
     inkscape:zoom="1.4805976"
     inkscape:cx="96.582621"
     inkscape:cy="182.6965"
     inkscape:window-width="1967"
     inkscape:window-height="1041"
     inkscape:window-x="4157"
     inkscape:window-y="154"
     inkscape:window-maximized="0"
     inkscape:current-layer="layer1" />
  <defs
     id="defs2">
    <rect
       x="170.20154"
       y="167.49993"
       width="190.46363"
       height="191.81444"
       id="rect4334" />
    <rect
       x="40.565071"
       y="37.24379"
       width="180.61554"
       height="185.48476"
       id="rect49794" />
    <rect
       x="127.78373"
       y="42.005741"
       width="148.2305"
       height="105.06885"
       id="rect37072" />
    <rect
       x="125.26746"
       y="20.163071"
       width="161.75307"
       height="146.10362"
       id="rect34910" />
    <rect
       x="88.023338"
       y="116.2445"
       width="410.76898"
       height="288.64053"
       id="rect9478" />
    <rect
       x="151.6339"
       y="94.149704"
       width="410.79932"
       height="386.89203"
       id="rect6128" />
  </defs>
  <g
     inkscape:label="Layer 1"
     inkscape:groupmode="layer"
     id="layer1">
    <rect
       style="fill:#ffffff;fill-opacity:1;stroke:#0078d7;stroke-width:8;stroke-miterlimit:4;stroke-dasharray:none;stroke-opacity:1"
       id="rect61757"
       width="115.72649"
       height="109.71385"
       x="9.6789494"
       y="12.335582"
       ry="4.7440324"
       rx="4.7440324" />
    <text
       xml:space="preserve"
       transform="scale(0.26458333)"
       id="text6126"
       style="font-style:normal;font-weight:normal;font-size:8px;line-height:125%;font-family:Sans;letter-spacing:0px;word-spacing:0px;white-space:pre;shape-inside:url(#rect6128);fill:#000000;fill-opacity:1;stroke:none;stroke-width:1px;stroke-linecap:butt;stroke-linejoin:miter;stroke-opacity:1" />
    <text
       xml:space="preserve"
       transform="scale(0.26458333)"
       id="text34908"
       style="font-style:normal;font-weight:normal;font-size:8px;line-height:125%;font-family:Sans;letter-spacing:0px;word-spacing:0px;white-space:pre;shape-inside:url(#rect34910);fill:#000000;fill-opacity:1;stroke:none;stroke-width:1px;stroke-linecap:butt;stroke-linejoin:miter;stroke-opacity:1" />
    <text
       xml:space="preserve"
       transform="scale(0.26458333)"
       id="text49792"
       style="font-style:normal;font-weight:normal;font-size:8px;line-height:125%;font-family:Sans;letter-spacing:0px;word-spacing:0px;white-space:pre;shape-inside:url(#rect49794);fill:#000000;fill-opacity:1;stroke:none;stroke-width:1px;stroke-linecap:butt;stroke-linejoin:miter;stroke-opacity:1" />
    <text
       xml:space="preserve"
       transform="scale(0.26458333)"
       id="text4332"
       style="font-style:normal;font-weight:normal;font-size:8px;line-height:125%;font-family:Sans;letter-spacing:0px;word-spacing:0px;white-space:pre;shape-inside:url(#rect4334);fill:#000000;fill-opacity:1;stroke:none;stroke-width:1px;stroke-linecap:butt;stroke-linejoin:miter;stroke-opacity:1"><tspan
         x="170.20117"
         y="174.57812"
         id="tspan48572">A</tspan></text>
    <g
       aria-label="ï¼"
       transform="matrix(-1,0,0,1,-3.7908071,-3.2853662)"
       id="text13712"
       style="font-size:1.57513px;line-height:125%;font-family:Sans;letter-spacing:0px;word-spacing:0px;white-space:pre;fill:#0078d7;fill-opacity:1;stroke-width:0.264583px">
      <path
         d="m -38.062901,80.388782 -12.600975,25.201948 q -1.181342,2.23142 -3.937805,2.36268 h -50.272639 q -3.54403,-0.13126 -5.90671,-2.49394 -2.36268,-2.36268 -2.49394,-5.906705 v -42.00325 q 0.13126,-3.544024 2.49394,-5.906707 2.36268,-2.362683 5.90671,-2.493943 h 15.488697 q 3.412765,0 5.906708,2.493943 l 6.431747,5.906707 h 18.376422 q 3.544024,0.13126 5.906707,2.493943 2.362683,2.362683 2.493943,5.906707 v 4.200325 h -6.300487 v -4.200325 q -0.131261,-1.968903 -2.100163,-2.100163 h -21.001625 l -8.26939,-7.744349 q -0.656301,-0.656301 -1.443862,-0.656301 h -15.488697 q -1.9689,0.13126 -2.10016,2.100163 V 95.35244 l 9.319468,-18.638942 q 1.181341,-2.231423 3.806544,-2.362683 h 51.979022 q 2.362683,0.13126 3.544024,1.968902 1.181342,1.837642 0.262521,4.069065 z"
         style="font-size:67.2052px;font-family:'Font Awesome 6 Pro';-inkscape-font-specification:'Font Awesome 6 Pro, Normal';fill:#0078d7;fill-opacity:1"
         id="path24284" />
    </g>
    <path
       id="path48131"
       style="fill:#f6f6f6;stroke-width:30.2361"
       d="M 190.18555 119.71289 L 106.40625 177.26562 L 169.08984 268.72461 L 297.01367 268.72461 L 329.29102 246.80664 L 237.46289 129.16797 L 190.18555 119.71289 z "
       transform="scale(0.26458333)" />
    <path
       id="path47847"
       style="color:#000000;font-size:2.11667px;font-family:Sans;-inkscape-font-specification:'Sans, Normal';letter-spacing:0px;word-spacing:0px;fill:#0078d7;stroke:none;stroke-width:0.264583px;-inkscape-stroke:none"
       d="m 46.785057,29.609563 c -1.550823,-0.02442 -2.970381,0.431506 -4.242636,1.366324 l -14.749486,10.837582 -0.0016,0.001 c -1.577736,1.251778 -2.518468,2.829946 -2.806031,4.710824 -0.287562,1.880875 0.139085,3.665445 1.270724,5.331457 l 5.17e-4,0.001 0.0015,0.0026 14.021882,19.083591 h 6.895704 l -16.43714,-22.37068 c -0.281892,-0.444926 -0.385903,-0.849053 -0.329179,-1.220079 0.057,-0.372835 0.277435,-0.72727 0.683163,-1.069186 l 14.099396,-10.359575 5.143873,7.001123 c 0.626036,0.852012 1.429367,1.360845 2.387968,1.507403 0.958602,0.146561 1.877021,-0.0995 2.729034,-0.725538 l 7.000605,-5.143873 18.716686,25.472348 c 0.285036,0.447521 0.388247,0.850344 0.331248,1.223182 -0.05673,0.37102 -0.276553,0.725196 -0.678514,1.065567 l -6.286436,4.619357 h 9.383921 l 0.197406,-0.145211 0.0016,-10e-4 c 1.577702,-1.251829 2.519497,-2.828402 2.807062,-4.709274 0.287565,-1.88087 -0.139081,-3.665448 -1.270722,-5.331457 l -0.0026,-0.0031 L 66.526487,34.722429 C 65.333129,33.098314 63.733146,32.127092 61.750036,31.823898 L 47.879565,29.703096 c -0.371618,-0.05682 -0.736624,-0.08791 -1.094508,-0.09353 z" />
  </g>
</svg>
